<svg width="24" height="24" viewBox="0 0 24 24" fill="none" xmlns="http://www.w3.org/2000/svg">
<path d="M23.9999 9.14258H22.8599V10.2826H23.9999V9.14258Z" fill="white"/>
<path d="M22.8599 10.2827H21.7124V11.4227H22.8599V10.2827Z" fill="white"/>
<path d="M21.7123 20.5723H20.5723V22.8523H21.7123V20.5723Z" fill="white"/>
<path d="M20.5723 18.2852H19.4248V20.5727H20.5723V18.2852Z" fill="white"/>
<path d="M21.7123 11.4224H19.4248V12.5699H21.7123V11.4224Z" fill="white"/>
<path d="M20.5727 22.8525H18.2852V24H20.5727V22.8525Z" fill="white"/>
<path d="M19.4252 15.9976H18.2852V18.2851H19.4252V15.9976Z" fill="white"/>
<path d="M19.4252 12.5698H18.2852V13.7098H19.4252V12.5698Z" fill="white"/>
<path d="M18.285 21.7124H17.145V22.8524H18.285V21.7124Z" fill="white"/>
<path d="M18.285 13.71H17.145V15.9975H18.285V13.71Z" fill="white"/>
<path d="M17.1449 20.5723H14.8574V21.7123H17.1449V20.5723Z" fill="white"/>
<path d="M22.8601 7.99512H15.9976V9.14262H22.8601V7.99512Z" fill="white"/>
<path d="M15.9974 5.71484H14.8574V7.99484H15.9974V5.71484Z" fill="white"/>
<path d="M14.8573 19.4248H13.7173V20.5723H14.8573V19.4248Z" fill="white"/>
<path d="M14.8573 3.42773H13.7173V5.71523H14.8573V3.42773Z" fill="white"/>
<path d="M13.7173 18.2852H12.5698V19.4252H13.7173V18.2852Z" fill="white"/>
<path d="M13.7173 1.14014H12.5698V3.42764H13.7173V1.14014Z" fill="white"/>
<path d="M12.5702 17.1377H11.4302V18.2852H12.5702V17.1377Z" fill="white"/>
<path d="M12.5702 0H11.4302V1.14H12.5702V0Z" fill="white"/>
<path d="M11.4302 18.2852H10.2827V19.4252H11.4302V18.2852Z" fill="white"/>
<path d="M11.4302 1.14014H10.2827V3.42764H11.4302V1.14014Z" fill="white"/>
<path d="M10.2826 19.4248H9.14258V20.5723H10.2826V19.4248Z" fill="white"/>
<path d="M10.2826 3.42773H9.14258V5.71523H10.2826V3.42773Z" fill="white"/>
<path d="M9.14244 5.71484H8.00244V7.99484H9.14244V5.71484Z" fill="white"/>
<path d="M9.14248 20.5723H6.85498V21.7123H9.14248V20.5723Z" fill="white"/>
<path d="M6.85484 21.7124H5.71484V22.8524H6.85484V21.7124Z" fill="white"/>
<path d="M6.85484 13.71H5.71484V15.9975H6.85484V13.71Z" fill="white"/>
<path d="M5.7152 15.9976H4.5752V18.2851H5.7152V15.9976Z" fill="white"/>
<path d="M5.7152 12.5698H4.5752V13.7098H5.7152V12.5698Z" fill="white"/>
<path d="M5.71523 22.8525H3.42773V24H5.71523V22.8525Z" fill="white"/>
<path d="M4.57523 18.2852H3.42773V20.5727H4.57523V18.2852Z" fill="white"/>
<path d="M4.5751 11.4224H2.2876V12.5699H4.5751V11.4224Z" fill="white"/>
<path d="M3.4276 20.5723H2.2876V22.8523H3.4276V20.5723Z" fill="white"/>
<path d="M8.00264 7.99512H1.14014V9.14262H8.00264V7.99512Z" fill="white"/>
<path d="M2.28764 10.2827H1.14014V11.4227H2.28764V10.2827Z" fill="white"/>
<path d="M1.14 9.14258H0V10.2826H1.14V9.14258Z" fill="white"/>
</svg>
